HIERARCHY
ROOT Hips
{
	OFFSET 0.000000 93.385445 0.000000
	CHANNELS 6 Xposition Yposition Zposition Xrotation Yrotation Zrotation
	JOINT RightUpLeg
	{
		OFFSET -8.267204 -0.002556 0.000284
		CHANNELS 6 Xposition Yposition Zposition Xrotation Yrotation Zrotation
		JOINT RightLeg
		{
			OFFSET 0.000000 -42.978920 0.000356
			CHANNELS 6 Xposition Yposition Zposition Xrotation Yrotation Zrotation
			JOINT RightFoot
			{
				OFFSET 0.000000 -41.964985 0.000601
				CHANNELS 6 Xposition Yposition Zposition Xrotation Yrotation Zrotation
				JOINT RightToeBase
				{
					OFFSET 0.000000 -6.852513 15.501974
					CHANNELS 6 Xposition Yposition Zposition Xrotation Yrotation Zrotation
					End Site
					{
						OFFSET 0.000000 0.000000 16.948986
					}
				}
			}
		}
	}
	JOINT LeftUpLeg
	{
		OFFSET 8.267204 -0.004822 0.000536
		CHANNELS 6 Xposition Yposition Zposition Xrotation Yrotation Zrotation
		JOINT LeftLeg
		{
			OFFSET 0.000000 -42.978920 0.000356
			CHANNELS 6 Xposition Yposition Zposition Xrotation Yrotation Zrotation
			JOINT LeftFoot
			{
				OFFSET 0.000000 -41.964985 0.000601
				CHANNELS 6 Xposition Yposition Zposition Xrotation Yrotation Zrotation
				JOINT LeftToeBase
				{
					OFFSET 0.000000 -6.852513 15.501974
					CHANNELS 6 Xposition Yposition Zposition Xrotation Yrotation Zrotation
					End Site
					{
						OFFSET 0.000000 0.000000 16.948986
					}
				}
			}
		}
	}
	JOINT Spine
	{
		OFFSET 0.000000 10.062492 -1.118055
		CHANNELS 6 Xposition Yposition Zposition Xrotation Yrotation Zrotation
		JOINT Spine1
		{
			OFFSET 0.000000 11.181747 0.000000
			CHANNELS 3 Xrotation Yrotation Zrotation
			JOINT Spine2
			{
				OFFSET 0.000000 10.208565 0.001507
				CHANNELS 6 Xposition Yposition Zposition Xrotation Yrotation Zrotation
				JOINT Spine3
				{
					OFFSET 0.000000 10.197166 0.001508
					CHANNELS 6 Xposition Yposition Zposition Xrotation Yrotation Zrotation
					JOINT LeftShoulder
					{
						OFFSET 3.104119 8.005707 0.000000
						CHANNELS 6 Xposition Yposition Zposition Xrotation Yrotation Zrotation
						JOINT LeftArm
						{
							OFFSET 14.462845 0.000000 0.000000
							CHANNELS 3 Xrotation Yrotation Zrotation
							JOINT LeftForeArm
							{
								OFFSET 30.948917 0.000000 0.000000
								CHANNELS 3 Xrotation Yrotation Zrotation
								JOINT LeftHand
								{
									OFFSET 25.302570 0.000000 0.000000
									CHANNELS 3 Xrotation Yrotation Zrotation
									End Site
									{
										OFFSET 25.302567 0.000000 0.000000
									}
								}
							}
						}
					}
					JOINT RightShoulder
					{
						OFFSET -3.104119 8.005707 0.000000
						CHANNELS 6 Xposition Yposition Zposition Xrotation Yrotation Zrotation
						JOINT RightArm
						{
							OFFSET -14.462845 0.000000 0.000000
							CHANNELS 3 Xrotation Yrotation Zrotation
							JOINT RightForeArm
							{
								OFFSET -30.948917 0.000000 0.000000
								CHANNELS 3 Xrotation Yrotation Zrotation
								JOINT RightHand
								{
									OFFSET -25.302570 0.000000 0.000000
									CHANNELS 3 Xrotation Yrotation Zrotation
									End Site
									{
										OFFSET -25.302567 0.000000 0.000000
									}
								}
							}
						}
					}
					JOINT Neck
					{
						OFFSET 0.000000 14.283447 0.000000
						CHANNELS 6 Xposition Yposition Zposition Xrotation Yrotation Zrotation
						JOINT Head
						{
							OFFSET 0.000000 9.493164 -0.003241
							CHANNELS 6 Xposition Yposition Zposition Xrotation Yrotation Zrotation
							End Site
							{
								OFFSET 0.000000 9.493164 0.000000
							}
						}
					}
				}
			}
		}
	}
}
MOTION
Frames: 10
Frame Time: 0.016667
-180.722382 44.507122 99.220734 88.944697 16.546074 -88.658758 -8.267200 -0.002565 0.000285 -54.371564 2.484634 2.871532 -0.000006 -42.978928 0.000337 84.160553 0.257060 -0.609385 -0.000004 -41.965015 0.000594 1.949597 -1.578491 11.188602 -0.000004 -6.852517 15.501967 -90.934338 -1.246834 1.576045 8.267211 -0.004838 0.000538 -56.403572 1.209095 7.409435 -0.000001 -42.978920 0.000349 90.458718 0.006449 -0.813068 -0.000001 -41.964993 0.000609 -1.861474 2.197523 -4.841758 -0.000007 -6.852526 15.501980 -66.695943 4.482167 -16.431475 0.000005 10.062494 -1.118056 2.902944 -3.316679 -1.442862 -4.527720 -1.390291 -0.807064 0.000006 10.208570 0.001504 1.292710 -1.390209 -0.807208 0.000008 10.197165 0.001508 6.808752 -1.097375 -0.499400 3.104105 8.005685 0.000003 0.148899 6.092995 -0.153893 -91.656118 -48.345223 -93.261397 -13.363015 14.700500 0.608856 46.207644 -16.356777 87.070043 -3.104126 8.005726 0.000007 -4.299862 13.497369 5.680052 -82.907937 40.728794 86.198319 6.254438 -3.832680 1.683113 40.432473 12.187071 -81.511771 -0.000010 14.283455 0.000006 -3.747275 -5.028086 4.679859 -0.000013 9.493140 -0.003234 -42.948359 -11.612957 5.025582 
-180.718933 44.504265 99.221107 88.957395 16.549794 -88.685587 -8.267211 -0.002548 0.000297 -54.360209 2.460081 2.874484 -0.000001 -42.978916 0.000363 84.159255 0.266525 -0.606222 -0.000007 -41.964981 0.000604 1.942376 -1.595105 11.193313 -0.000015 -6.852509 15.501972 -90.910364 -1.254766 1.587370 8.267204 -0.004799 0.000560 -56.402343 1.186340 7.408183 -0.000012 -42.978916 0.000373 90.456177 0.019340 -0.799647 -0.000016 -41.964993 0.000605 -1.860632 2.169750 -4.841843 0.000007 -6.852527 15.501972 -66.756411 4.489648 -16.393246 -0.000005 10.062525 -1.118044 2.910733 -3.307847 -1.448261 -4.524232 -1.386085 -0.809047 -0.000002 10.208585 0.001501 1.296200 -1.386001 -0.809190 0.000009 10.197154 0.001507 6.811358 -1.094380 -0.501200 3.104119 8.005710 0.000012 0.182858 6.089494 -0.140430 -91.799983 -48.456145 -93.361842 -13.455949 14.744111 0.610154 46.204246 -16.348633 87.079393 -3.104114 8.005697 0.000008 -4.240446 13.431132 5.669475 -82.985084 40.723951 86.223932 6.253260 -3.834606 1.690229 40.420363 12.199624 -81.535137 -0.000000 14.283445 0.000008 -3.589203 -5.017655 4.686151 0.000004 9.493164 -0.003242 -42.651123 -11.594640 5.057922 
-180.714661 44.501617 99.223511 88.974368 16.547539 -88.709008 -8.267200 -0.002579 0.000298 -54.354041 2.427319 2.874346 -0.000011 -42.978920 0.000384 84.158121 0.267897 -0.605827 -0.000017 -41.964996 0.000603 1.935031 -1.617007 11.193721 -0.000015 -6.852531 15.501981 -90.883815 -1.274449 1.613663 8.267205 -0.004854 0.000550 -56.404525 1.160043 7.403815 -0.000002 -42.978916 0.000368 90.449477 0.028356 -0.791793 0.000005 -41.964985 0.000601 -1.858006 2.140914 -4.840544 0.000002 -6.852509 15.501964 -66.817056 4.495954 -16.351297 0.000004 10.062475 -1.118045 2.915622 -3.295840 -1.462229 -4.521971 -1.380048 -0.814630 0.000007 10.208575 0.001511 1.298459 -1.379964 -0.814772 -0.000015 10.197157 0.001511 6.813046 -1.090285 -0.505819 3.104117 8.005671 0.000004 0.204103 6.083186 -0.120555 -91.946415 -48.567061 -93.473830 -13.551844 14.789055 0.603060 46.214272 -16.335516 87.090335 -3.104118 8.005695 0.000002 -4.173637 13.341595 5.659020 -83.076062 40.707740 86.268445 6.244249 -3.838829 1.687829 40.415093 12.215325 -81.560327 0.000007 14.283422 0.000003 -3.423923 -5.007876 4.705304 0.000003 9.493166 -0.003241 -42.339086 -11.585013 5.113039 
-180.707611 44.502380 99.219879 88.992024 16.529876 -88.723959 -8.267216 -0.002570 0.000291 -54.360038 2.401525 2.861767 0.000008 -42.978920 0.000355 84.149577 0.261443 -0.595887 -0.000007 -41.964989 0.000604 1.930738 -1.623933 11.181186 -0.000005 -6.852529 15.501976 -90.852711 -1.292397 1.638054 8.267197 -0.004837 0.000547 -56.415252 1.133088 7.389189 0.000010 -42.978920 0.000370 90.434737 0.021372 -0.800683 -0.000001 -41.964993 0.000595 -1.853153 2.145165 -4.838173 -0.000003 -6.852505 15.501979 -66.848803 4.500684 -16.332859 -0.000012 10.062489 -1.118056 2.915121 -3.288133 -1.475306 -4.522106 -1.375975 -0.820002 -0.000009 10.208572 0.001502 1.298324 -1.375892 -0.820144 -0.000008 10.197170 0.001508 6.812942 -1.087643 -0.510129 3.104113 8.005711 0.000005 0.209564 6.098842 -0.098460 -92.030611 -48.564636 -93.562356 -13.522446 14.770713 0.575254 46.209266 -16.309566 87.100505 -3.104122 8.005706 0.000003 -4.113035 13.240726 5.641023 -83.173987 40.664474 86.348747 6.236689 -3.837629 1.662963 40.432954 12.226757 -81.579732 -0.000008 14.283459 0.000008 -3.263445 -4.982902 4.718226 0.000001 9.493158 -0.003242 -42.035525 -11.545179 5.166153 
-180.698547 44.503883 99.218102 89.016298 16.501752 -88.737688 -8.267203 -0.002550 0.000282 -54.373954 2.371425 2.844877 -0.000006 -42.978920 0.000372 84.140014 0.252085 -0.589734 -0.000010 -41.964970 0.000590 1.925374 -1.628989 11.166884 -0.000011 -6.852514 15.501969 -90.812194 -1.308429 1.660634 8.267207 -0.004800 0.000539 -56.433929 1.111159 7.370540 0.000005 -42.978912 0.000349 90.413543 0.010841 -0.808807 -0.000001 -41.964996 0.000606 -1.844447 2.154935 -4.833968 -0.000000 -6.852502 15.501978 -66.877025 4.507041 -16.323228 -0.000002 10.062506 -1.118050 2.911640 -3.279273 -1.492095 -4.523539 -1.371215 -0.826934 0.000001 10.208598 0.001502 1.296890 -1.371130 -0.827075 0.000001 10.197149 0.001504 6.811865 -1.084604 -0.515652 3.104112 8.005710 0.000012 0.190522 6.130317 -0.069471 -92.097950 -48.544186 -93.668408 -13.457439 14.725005 0.531637 46.193065 -16.277557 87.110402 -3.104124 8.005706 0.000011 -4.045363 13.114107 5.619262 -83.292374 40.601855 86.457894 6.233173 -3.834417 1.627788 40.458516 12.236364 -81.601588 -0.000002 14.283449 0.000012 -3.124324 -4.961883 4.739051 0.000006 9.493168 -0.003232 -41.771419 -11.517479 5.228633 
-180.689484 44.505188 99.224533 89.049192 16.467306 -88.755863 -8.267213 -0.002548 0.000281 -54.393506 2.328545 2.832735 0.000008 -42.978920 0.000376 84.136476 0.247709 -0.602025 0.000001 -41.964977 0.000603 1.914612 -1.644214 11.163112 -0.000008 -6.852519 15.501978 -90.745825 -1.319671 1.678798 8.267197 -0.004813 0.000537 -56.462032 1.107783 7.355297 0.000012 -42.978920 0.000346 90.386912 0.010949 -0.796000 -0.000007 -41.964996 0.000611 -1.828000 2.145060 -4.826668 0.000001 -6.852504 15.501972 -66.923997 4.518714 -16.312886 -0.000016 10.062518 -1.118057 2.909117 -3.262388 -1.516500 -4.524503 -1.362517 -0.836822 -0.000009 10.208579 0.001510 1.295928 -1.362431 -0.836963 0.000001 10.197150 0.001514 6.811136 -1.078847 -0.523674 3.104115 8.005730 -0.000005 0.141686 6.172748 -0.031342 -92.190553 -48.577200 -93.823980 -13.419851 14.674441 0.468429 46.169589 -16.242101 87.123202 -3.104124 8.005724 -0.000002 -3.953497 12.949406 5.596493 -83.450787 40.533659 86.583016 6.243664 -3.830586 1.602420 40.468382 12.243650 -81.640473 0.000001 14.283466 -0.000005 -3.034398 -4.963866 4.784440 -0.000010 9.493156 -0.003250 -41.598478 -11.545944 5.315520 
-180.677124 44.503471 99.237984 89.100193 16.422153 -88.779960 -8.267220 -0.002534 0.000280 -54.418193 2.275387 2.816091 -0.000013 -42.978924 0.000368 84.131948 0.240394 -0.620752 -0.000008 -41.964989 0.000601 1.901074 -1.657837 11.161169 -0.000005 -6.852494 15.501966 -90.685788 -1.322840 1.686448 8.267200 -0.004805 0.000537 -56.497884 1.103008 7.334888 0.000001 -42.978920 0.000347 90.353758 0.008337 -0.776753 0.000002 -41.964981 0.000587 -1.809864 2.132604 -4.817861 -0.000004 -6.852503 15.501972 -66.978584 4.534321 -16.306853 -0.000009 10.062521 -1.118062 2.901350 -3.246972 -1.543593 -4.527778 -1.354350 -0.847938 -0.000005 10.208531 0.001514 1.292653 -1.354263 -0.848078 -0.000006 10.197180 0.001518 6.808675 -1.073577 -0.532567 3.104132 8.005740 0.000013 0.048641 6.241534 0.020484 -92.274613 -48.653866 -94.035893 -13.396301 14.610389 0.401742 46.115924 -16.210132 87.129158 -3.104100 8.005717 0.000011 -3.857716 12.747844 5.570637 -83.627948 40.429700 86.754529 6.255810 -3.826645 1.553671 40.497322 12.251630 -81.672547 0.000009 14.283463 0.000010 -2.972414 -4.978816 4.833883 -0.000002 9.493171 -0.003242 -41.478291 -11.600128 5.399031 
-180.657776 44.493256 99.260330 89.190188 16.357121 -88.813797 -8.267223 -0.002533 0.000291 -54.451515 2.208049 2.780760 -0.000005 -42.978924 0.000376 84.120234 0.218939 -0.638639 0.000008 -41.964973 0.000594 1.885451 -1.653624 11.154784 -0.000020 -6.852522 15.501978 -90.682332 -1.309768 1.670177 8.267195 -0.004792 0.000540 -56.544657 1.071591 7.295158 -0.000000 -42.978924 0.000342 90.312279 -0.013173 -0.763466 0.000010 -41.965000 0.000606 -1.796269 2.130719 -4.809869 -0.000002 -6.852510 15.501972 -67.036729 4.552981 -16.304539 -0.000017 10.062523 -1.118046 2.877922 -3.242854 -1.570398 -4.537984 -1.351253 -0.859401 0.000013 10.208576 0.001501 1.282447 -1.351164 -0.859541 -0.000010 10.197185 0.001513 6.801030 -1.072126 -0.541329 3.104116 8.005712 0.000003 -0.126208 6.364070 0.100821 -92.318333 -48.807278 -94.344447 -13.415168 14.525340 0.343555 46.005368 -16.189019 87.115170 -3.104126 8.005712 0.000005 -3.784105 12.488383 5.544291 -83.801435 40.251025 87.025428 6.241240 -3.822412 1.433137 40.599000 12.265894 -81.665833 -0.000003 14.283442 0.000002 -2.923945 -5.007503 4.869576 -0.000002 9.493159 -0.003250 -41.385902 -11.670235 5.448731 
-180.634430 44.481209 99.287361 89.288474 16.290587 -88.855092 -8.267206 -0.002548 0.000295 -54.479689 2.138961 2.747408 -0.000004 -42.978920 0.000347 84.103466 0.198448 -0.651961 -0.000010 -41.964977 0.000598 1.870280 -1.652804 11.145603 -0.000006 -6.852498 15.501964 -90.673473 -1.291973 1.648278 8.267196 -0.004793 0.000546 -56.589196 1.037484 7.257458 0.000015 -42.978935 0.000361 90.265410 -0.035500 -0.747886 0.000002 -41.965004 0.000598 -1.784374 2.132972 -4.799768 -0.000006 -6.852502 15.501971 -67.094034 4.576160 -16.315582 -0.000010 10.062514 -1.118051 2.853574 -3.244797 -1.593574 -4.548621 -1.351024 -0.869568 0.000016 10.208552 0.001502 1.271809 -1.350934 -0.869708 -0.000014 10.197168 0.001505 6.793065 -1.072720 -0.548909 3.104120 8.005691 0.000006 -0.321465 6.502820 0.182386 -92.348269 -48.968317 -94.679871 -13.402017 14.433050 0.305063 45.848516 -16.180662 87.092309 -3.104112 8.005706 0.000008 -3.704427 12.226669 5.504605 -83.984511 40.030250 87.321223 6.253110 -3.820419 1.297591 40.703324 12.278886 -81.652664 0.000004 14.283453 0.000008 -2.888781 -5.032402 4.893838 -0.000009 9.493126 -0.003250 -41.319363 -11.727205 5.479466 
-180.608826 44.475361 99.313828 89.365457 16.241353 -88.903750 -8.267202 -0.002572 0.000285 -54.486625 2.080066 2.735552 -0.000002 -42.978931 0.000373 84.080250 0.193214 -0.653454 -0.000009 -41.964977 0.000593 1.860644 -1.677194 11.133328 -0.000005 -6.852511 15.501964 -90.590718 -1.283423 1.642559 8.267204 -0.004814 0.000544 -56.616702 1.021959 7.241734 -0.000005 -42.978916 0.000375 90.212572 -0.040374 -0.719277 -0.000008 -41.964989 0.000596 -1.770562 2.129754 -4.785121 0.000010 -6.852516 15.501975 -67.148628 4.603568 -16.341072 0.000006 10.062502 -1.118052 2.845517 -3.252427 -1.606082 -4.552089 -1.353786 -0.875425 -0.000004 10.208569 0.001501 1.268341 -1.353696 -0.875564 0.000007 10.197164 0.001504 6.790483 -1.075219 -0.553066 3.104117 8.005715 0.000009 -0.478499 6.628156 0.237114 -92.393048 -49.079977 -94.982885 -13.276543 14.355705 0.315493 45.627136 -16.197201 87.071279 -3.104124 8.005732 0.000007 -3.580465 12.026166 5.423801 -84.208685 39.759969 87.581262 6.382373 -3.823869 1.191603 40.734920 12.283278 -81.658204 0.000003 14.283467 0.000009 -2.873066 -5.029145 4.900596 0.000009 9.493145 -0.003242 -41.288968 -11.725171 5.494842 
